<svg width="24" height="24" viewBox="0 0 24 24" fill="none" xmlns="http://www.w3.org/2000/svg">
<path d="M21 11.527L13.0048 19.4133C11.8949 20.4799 10.4038 21.0723 8.85428 21.0624C7.30477 21.0524 5.8216 20.4409 4.72591 19.3601C3.63022 18.2794 3.01021 16.8164 3.00012 15.288C2.99004 13.7597 3.5907 12.2889 4.67204 11.1942L12.9062 3.07232C13.6428 2.34571 14.6419 1.9375 15.6837 1.9375C16.7255 1.9375 17.7246 2.34571 18.4613 3.07232C19.198 3.79893 19.6118 4.78443 19.6118 5.81202C19.6118 6.83961 19.198 7.82511 18.4613 8.55172L10.4647 16.4393C10.0963 16.8026 9.59677 17.0067 9.07588 17.0067C8.55498 17.0067 8.05542 16.8026 7.68709 16.4393C7.31876 16.076 7.11184 15.5833 7.11184 15.0695C7.11184 14.5557 7.31876 14.0629 7.68709 13.6996L15.4449 6.04764" stroke="black" stroke-width="2" stroke-linecap="round"/>
</svg>
