<svg width="76" height="72" viewBox="0 0 76 72" fill="none" xmlns="http://www.w3.org/2000/svg">
<path d="M26.8462 7.10419C27.1567 6.92384 27.5401 6.92384 27.8506 7.10419L31.8834 9.4464C32.0676 9.55334 32.281 9.59872 32.4927 9.57591L37.1295 9.07648C37.4866 9.03802 37.8368 9.19396 38.0471 9.48503L40.7786 13.265C40.9033 13.4376 41.0799 13.5659 41.2826 13.6312L45.7216 15.0609C46.0634 15.171 46.32 15.4559 46.3937 15.8073L47.3516 20.3715C47.3953 20.5799 47.5045 20.7689 47.6631 20.911L51.1368 24.0226C51.4043 24.2622 51.5228 24.6268 51.4472 24.9779L50.4659 29.5371C50.4211 29.7453 50.4439 29.9623 50.531 30.1566L52.4388 34.4121C52.5857 34.7398 52.5456 35.1211 52.3338 35.4111L49.5829 39.1769C49.4573 39.3489 49.3899 39.5564 49.3904 39.7694L49.4024 44.433C49.4034 44.7921 49.2117 45.1241 48.9002 45.3029L44.8554 47.6243C44.6707 47.7303 44.5247 47.8924 44.4386 48.0872L42.5527 52.3525C42.4075 52.6809 42.0973 52.9063 41.7401 52.9429L37.1008 53.4184C36.8889 53.4401 36.6896 53.5289 36.5317 53.6718L33.074 56.8013C32.8078 57.0422 32.4327 57.122 32.0915 57.0101L27.6599 55.5575C27.4575 55.4912 27.2393 55.4912 27.0369 55.5575L22.6053 57.0101C22.2641 57.122 21.8891 57.0422 21.6228 56.8013L18.1651 53.6718C18.0072 53.5289 17.8079 53.4401 17.596 53.4184L12.9567 52.9429C12.5995 52.9063 12.2893 52.6809 12.1441 52.3525L10.2582 48.0872C10.1721 47.8924 10.0261 47.7303 9.84142 47.6243L5.79662 45.3029C5.48516 45.1241 5.29346 44.7921 5.29439 44.433L5.30641 39.7694C5.30696 39.5564 5.23952 39.3489 5.11391 39.1769L2.36299 35.4111C2.15117 35.1211 2.11109 34.7398 2.258 34.4121L4.16584 30.1566C4.25295 29.9623 4.27576 29.7453 4.23095 29.5371L3.24958 24.9779C3.17401 24.6268 3.29248 24.2622 3.55997 24.0226L7.03374 20.911C7.19235 20.7689 7.30147 20.5799 7.34521 20.3715L8.30307 15.8073C8.37682 15.4559 8.63336 15.171 8.97518 15.0609L13.4142 13.6312C13.6169 13.5659 13.7935 13.4376 13.9182 13.265L16.6497 9.48503C16.86 9.19396 17.2102 9.03802 17.5673 9.07648L22.2041 9.57591C22.4158 9.59872 22.6293 9.55334 22.8134 9.4464L26.8462 7.10419Z" fill="url(#paint0_radial_46_402)"/>
<g filter="url(#filter0_b_46_402)">
<path d="M10 39.9984C10.0002 39.3201 10.2675 38.6695 10.7433 38.1893L14.9179 33.9867C15.0328 33.871 15.1332 33.7417 15.2167 33.6016L21.9891 22.2454C22.2152 21.8655 22.5353 21.5511 22.918 21.3329C23.3008 21.1146 23.7332 20.9999 24.1731 21H51.8269C52.2677 20.999 52.7012 21.1133 53.0849 21.3316C53.4686 21.5499 53.7895 21.8648 54.016 22.2454L60.7833 33.6013C60.8669 33.7416 60.9673 33.8711 61.0824 33.9869L65.2568 38.1893C65.7326 38.6695 65.9999 39.3201 66 39.9984V59.4375C66 60.1171 65.7319 60.7689 65.2545 61.2495C64.7771 61.73 64.1297 62 63.4546 62H55.8182C55.1431 62 54.4957 61.73 54.0183 61.2495C53.5409 60.7689 53.2728 60.1171 53.2728 59.4375V59.0964C53.2728 57.9918 52.3773 57.0964 51.2728 57.0964H24.7273C23.6227 57.0964 22.7273 57.9918 22.7273 59.0964V59.4375C22.7273 60.1171 22.4591 60.7689 21.9818 61.2495C21.5044 61.73 20.8569 62 20.1818 62H12.5455C11.8704 62 11.2229 61.73 10.7456 61.2495C10.2682 60.7689 10 60.1171 10 59.4375V39.9984Z" fill="url(#paint1_radial_46_402)"/>
<path d="M22.4188 22.5011L22.4186 22.5015L15.6461 33.8577C15.5417 34.0328 15.4163 34.1945 15.2726 34.3391L11.0985 38.5412C11.0984 38.5412 11.0984 38.5413 11.0983 38.5414C10.7157 38.9276 10.5002 39.4515 10.5 39.9984C10.5 39.9984 10.5 39.9984 10.5 39.9985V59.4375C10.5 59.9856 10.7163 60.5106 11.1003 60.8971C11.4842 61.2835 12.0041 61.5 12.5455 61.5H20.1818C20.7233 61.5 21.2432 61.2835 21.627 60.8971C22.011 60.5106 22.2273 59.9856 22.2273 59.4375V59.0964C22.2273 57.7156 23.3466 56.5964 24.7273 56.5964H51.2728C52.6535 56.5964 53.7728 57.7156 53.7728 59.0964V59.4375C53.7728 59.9856 53.9891 60.5106 54.373 60.8971C54.7569 61.2835 55.2768 61.5 55.8182 61.5H63.4546C63.996 61.5 64.5159 61.2835 64.8998 60.8971C65.2837 60.5106 65.5 59.9856 65.5 59.4375V39.9985C65.5 39.9984 65.5 39.9984 65.5 39.9984C65.4999 39.4516 65.2845 38.9278 64.902 38.5416L22.4188 22.5011ZM22.4188 22.5011C22.6008 22.1953 22.8583 21.9425 23.1657 21.7672C23.4731 21.5919 23.8202 21.4999 24.173 21.5H24.1731L51.8269 21.5L51.8281 21.5C52.1816 21.4992 52.5295 21.5909 52.8377 21.7662C53.1459 21.9415 53.404 22.1946 53.5864 22.5011L53.5865 22.5013L60.3537 33.8572C60.4582 34.0326 60.5838 34.1945 60.7277 34.3393L64.9016 38.5412L22.4188 22.5011Z" stroke="#DEDEDE"/>
</g>
<path d="M53.6072 33.2261C54.4018 34.5592 53.4412 36.25 51.8892 36.25H21.9291C20.3771 36.25 19.4165 34.5592 20.2111 33.2261L23.9361 26.9761C24.2969 26.3708 24.9495 26 25.6541 26H48.1641C48.8688 26 49.5214 26.3708 49.8821 26.9761L53.6072 33.2261ZM26.7273 45.6185V47.525C26.7273 47.9328 26.5664 48.3238 26.28 48.6122C25.9936 48.9005 25.6051 49.0625 25.2 49.0625H15.5273C15.1222 49.0625 14.7338 48.9005 14.4474 48.6122C14.1609 48.3238 14 47.9328 14 47.525V43.2507C14.0001 43.0233 14.0504 42.7986 14.1472 42.5931C14.2439 42.3875 14.3848 42.2061 14.5596 42.062C14.7345 41.9178 14.9389 41.8145 15.1582 41.7596C15.3774 41.7046 15.6061 41.6993 15.8277 41.744L25.0931 43.6095C25.554 43.703 25.9686 43.9541 26.2665 44.3203C26.5643 44.6865 26.7272 45.1452 26.7273 45.6185Z" fill="white"/>
<path d="M54.4748 28.9096C54.4748 30.5722 53.1413 31.9199 51.4964 31.9199C49.8515 31.9199 48.518 30.5722 48.518 28.9096C48.518 27.2469 49.8515 25.8991 51.4964 25.8991C53.1413 25.8991 54.4748 27.2469 54.4748 28.9096Z" fill="#33454F"/>
<path d="M37.9281 33.5924C37.9281 34.1466 37.4836 34.5959 36.9353 34.5959C36.3869 34.5959 35.9424 34.1466 35.9424 33.5924C35.9424 33.0382 36.3869 32.5889 36.9353 32.5889C37.4836 32.5889 37.9281 33.0382 37.9281 33.5924Z" fill="#33454F"/>
<path d="M32.6331 33.5924C32.6331 34.1466 32.1886 34.5959 31.6403 34.5959C31.092 34.5959 30.6475 34.1466 30.6475 33.5924C30.6475 33.0382 31.092 32.5889 31.6403 32.5889C32.1886 32.5889 32.6331 33.0382 32.6331 33.5924Z" fill="#33454F"/>
<path d="M29.9856 31.5854C29.9856 32.1396 29.5411 32.5889 28.9928 32.5889C28.4445 32.5889 28 32.1396 28 31.5854C28 31.0312 28.4445 30.582 28.9928 30.582C29.5411 30.582 29.9856 31.0312 29.9856 31.5854Z" fill="#33454F"/>
<path d="M35.2806 34.9304C35.2806 35.4846 34.8361 35.9338 34.2878 35.9338C33.7395 35.9338 33.295 35.4846 33.295 34.9304C33.295 34.3762 33.7395 33.9269 34.2878 33.9269C34.8361 33.9269 35.2806 34.3762 35.2806 34.9304Z" fill="#33454F"/>
<path d="M32.6331 36.9373C32.6331 37.4915 32.1886 37.9408 31.6403 37.9408C31.092 37.9408 30.6475 37.4915 30.6475 36.9373C30.6475 36.3831 31.092 35.9338 31.6403 35.9338C32.1886 35.9338 32.6331 36.3831 32.6331 36.9373Z" fill="#33454F"/>
<path d="M29.9856 34.9304C29.9856 35.4846 29.5411 35.9338 28.9928 35.9338C28.4445 35.9338 28 35.4846 28 34.9304C28 34.3762 28.4445 33.9269 28.9928 33.9269C29.5411 33.9269 29.9856 34.3762 29.9856 34.9304Z" fill="#33454F"/>
<path d="M29.9856 38.2753C29.9856 38.8295 29.5411 39.2788 28.9928 39.2788C28.4445 39.2788 28 38.8295 28 38.2753C28 37.7211 28.4445 37.2718 28.9928 37.2718C29.5411 37.2718 29.9856 37.7211 29.9856 38.2753Z" fill="#33454F"/>
<path d="M35.2806 32.2544C35.2806 32.8086 34.8361 33.2579 34.2878 33.2579C33.7395 33.2579 33.295 32.8086 33.295 32.2544C33.295 31.7002 33.7395 31.2509 34.2878 31.2509C34.8361 31.2509 35.2806 31.7002 35.2806 32.2544Z" fill="#33454F"/>
<path d="M32.6331 30.2475C32.6331 30.8017 32.1886 31.2509 31.6403 31.2509C31.092 31.2509 30.6475 30.8017 30.6475 30.2475C30.6475 29.6933 31.092 29.244 31.6403 29.244C32.1886 29.244 32.6331 29.6933 32.6331 30.2475Z" fill="#33454F"/>
<path d="M29.9856 28.2405C29.9856 28.7947 29.5411 29.244 28.9928 29.244C28.4445 29.244 28 28.7947 28 28.2405C28 27.6863 28.4445 27.237 28.9928 27.237C29.5411 27.237 29.9856 27.6863 29.9856 28.2405Z" fill="#33454F"/>
<path d="M56.651 6.88233C56.9593 6.14691 57.7991 5.80336 58.5267 6.11499L70.7659 11.3569C71.4935 11.6686 71.8333 12.5174 71.525 13.2528C71.2167 13.9882 70.377 14.3317 69.6494 14.0201L57.4102 8.77815C56.6826 8.46653 56.3427 7.61774 56.651 6.88233Z" fill="#33454F"/>
<path d="M46.2014 37.2719V29.913L43.0448 31.2424C42.5515 31.4502 42.2302 31.9373 42.2302 32.4775V33.4284V34.0974V34.7074C42.2302 35.2476 42.5515 35.7347 43.0448 35.9425L46.2014 37.2719Z" fill="#33454F"/>
<path d="M69.3266 13.8817L57.7333 8.91639L53.6653 18.6198C52.9522 20.3207 53.4538 22.0039 55.1367 22.7246L60.9204 25.3599C62.6032 26.0806 64.5455 25.286 65.2586 23.5851L69.3266 13.8817Z" fill="#33454F"/>
<path d="M54.4748 28.9096H59.1079L60.9204 25.3599L55.1367 22.7246L53.2718 26.4921C54.0019 27.0408 54.4748 27.9194 54.4748 28.9096Z" fill="#33454F"/>
<path d="M42.2302 33.4284H39.9137V34.0974H42.2302V33.4284Z" fill="#33454F"/>
<path d="M52.4892 38.2754H50.5036V41.98C50.5036 42.8897 49.9917 43.7219 49.1799 44.1322C49.1799 44.7455 49.8484 45.1822 50.3653 44.8521C50.7354 44.6157 51.1332 44.2969 51.5364 43.8278C51.7357 43.596 51.8477 43.3039 51.8864 43.0006L52.4892 38.2754Z" fill="#33454F"/>
<path d="M64.0719 28.9096H59.1079H54.4748C54.4748 30.5722 53.1413 31.9199 51.4964 31.9199C49.8515 31.9199 48.518 30.5722 48.518 28.9096H46.2014V29.913V37.2719V38.2754H50.5036H52.4892H54.8058H63.741L64.0719 32.9075V28.9096Z" fill="#33454F"/>
<path d="M54.8058 38.2754L57.4407 49.6481H66.376L63.741 38.2754H54.8058Z" fill="#33454F"/>
<path d="M70.3597 32.9075V28.9096H64.0719V32.9075H70.3597Z" fill="#33454F"/>
<path d="M74 25.8991L70.3597 28.9096V32.9075L74 35.5994V25.8991Z" fill="#33454F"/>
<path d="M68.3741 49.6481H66.376H57.4407H55.7986L53.482 51.6551V55H70.0288V51.1294L68.3741 49.6481Z" fill="#33454F"/>
<defs>
<filter id="filter0_b_46_402" x="-2.39997" y="8.6" width="80.8" height="65.8" filterUnits="userSpaceOnUse" color-interpolation-filters="sRGB">
<feFlood flood-opacity="0" result="BackgroundImageFix"/>
<feGaussianBlur in="BackgroundImageFix" stdDeviation="6.2"/>
<feComposite in2="SourceAlpha" operator="in" result="effect1_backgroundBlur_46_402"/>
<feBlend mode="normal" in="SourceGraphic" in2="effect1_backgroundBlur_46_402" result="shape"/>
</filter>
<radialGradient id="paint0_radial_46_402" cx="0" cy="0" r="1" gradientUnits="userSpaceOnUse" gradientTransform="translate(29.4764 37.4215) rotate(-68.6522) scale(30.2896 30.2896)">
<stop stop-color="#82BF00"/>
<stop offset="0.0001" stop-color="#68930C"/>
<stop offset="1" stop-color="#82BF00"/>
</radialGradient>
<radialGradient id="paint1_radial_46_402" cx="0" cy="0" r="1" gradientUnits="userSpaceOnUse" gradientTransform="translate(40 30) rotate(97.9879) scale(33.2838 43.7699)">
<stop stop-color="#7FAE38"/>
<stop offset="0.0001" stop-color="#A1C170"/>
<stop offset="0.770271" stop-color="#EBEBEB"/>
</radialGradient>
</defs>
</svg>
