<svg width="40" height="40" viewBox="0 0 40 40" fill="none" xmlns="http://www.w3.org/2000/svg">
<path d="M27.4999 3H12.5C10.5109 3 8.60321 3.77452 7.19669 5.15316C5.79017 6.53181 5 8.40165 5 10.3514V29.6486C5 31.5983 5.79017 33.4682 7.19669 34.8468C8.60321 36.2255 10.5109 37 12.5 37H27.4999C29.489 37 31.3967 36.2255 32.8032 34.8468C34.2097 33.4682 34.9999 31.5983 34.9999 29.6486V10.3514C34.9999 8.40165 34.2097 6.53181 32.8032 5.15316C31.3967 3.77452 29.489 3 27.4999 3Z" stroke="#82BF00" stroke-width="2" stroke-linecap="round" stroke-linejoin="round"/>
<path d="M11 21H14M11 26H14M11 31H14M26 21H29M26 26H29M26 31H29M18.5 21H21.5M18.5 26H21.5M18.5 31H21.5M27.3494 9H12.6506C11.7398 9 11 9.784 11 10.75V14.25C11 15.216 11.738 16 12.6506 16H27.3494C28.2602 16 29 15.216 29 14.25V10.75C29 9.784 28.262 9 27.3494 9Z" stroke="#82BF00" stroke-width="2" stroke-linecap="round" stroke-linejoin="round"/>
</svg>
