<svg width="82" height="72" viewBox="0 0 82 72" fill="none" xmlns="http://www.w3.org/2000/svg">
<path d="M3 32.9984C3.00014 32.3201 3.26743 31.6695 3.74327 31.1893L7.91786 26.9867C8.0328 26.871 8.13314 26.7417 8.21668 26.6016L14.9891 15.2454C15.2152 14.8655 15.5352 14.5511 15.918 14.3329C16.3008 14.1146 16.7332 13.9999 17.1731 14H44.8269C45.2677 13.999 45.7011 14.1133 46.0849 14.3316C46.4686 14.5499 46.7895 14.8648 47.016 15.2454L53.7832 26.6013C53.8668 26.7416 53.9673 26.8711 54.0824 26.9869L58.2567 31.1893C58.7326 31.6695 58.9999 32.3201 59 32.9984V52.4375C59 53.1171 58.7318 53.7689 58.2545 54.2495C57.7771 54.73 57.1296 55 56.4545 55H48.8182C48.1431 55 47.4956 54.73 47.0183 54.2495C46.5409 53.7689 46.2727 53.1171 46.2727 52.4375V52.0964C46.2727 50.9918 45.3773 50.0964 44.2727 50.0964H17.7273C16.6227 50.0964 15.7273 50.9918 15.7273 52.0964V52.4375C15.7273 53.1171 15.4591 53.7689 14.9817 54.2495C14.5044 54.73 13.8569 55 13.1818 55H5.54545C4.87036 55 4.22291 54.73 3.74555 54.2495C3.26818 53.7689 3 53.1171 3 52.4375V32.9984Z" fill="url(#paint0_radial_43_536)"/>
<g filter="url(#filter0_b_43_536)">
<path d="M10 39.9984C10.0001 39.3201 10.2674 38.6695 10.7433 38.1893L14.9179 33.9867C15.0328 33.871 15.1331 33.7417 15.2167 33.6016L21.9891 22.2454C22.2152 21.8655 22.5352 21.5511 22.918 21.3329C23.3008 21.1146 23.7332 20.9999 24.1731 21H51.8269C52.2677 20.999 52.7011 21.1133 53.0849 21.3316C53.4686 21.5499 53.7895 21.8648 54.016 22.2454L60.7832 33.6013C60.8668 33.7416 60.9673 33.8711 61.0824 33.9869L65.2567 38.1893C65.7326 38.6695 65.9999 39.3201 66 39.9984V59.4375C66 60.1171 65.7318 60.7689 65.2545 61.2495C64.7771 61.73 64.1296 62 63.4545 62H55.8182C55.1431 62 54.4956 61.73 54.0183 61.2495C53.5409 60.7689 53.2727 60.1171 53.2727 59.4375V59.0964C53.2727 57.9918 52.3773 57.0964 51.2727 57.0964H24.7273C23.6227 57.0964 22.7273 57.9918 22.7273 59.0964V59.4375C22.7273 60.1171 22.4591 60.7689 21.9817 61.2495C21.5044 61.73 20.8569 62 20.1818 62H12.5455C11.8704 62 11.2229 61.73 10.7455 61.2495C10.2682 60.7689 10 60.1171 10 59.4375V39.9984Z" fill="url(#paint1_radial_43_536)"/>
<path d="M22.4187 22.5011L22.4185 22.5015L15.6461 33.8577C15.5417 34.0328 15.4163 34.1945 15.2726 34.3391L11.0984 38.5412C11.0984 38.5412 11.0983 38.5413 11.0983 38.5414C10.7157 38.9276 10.5001 39.4515 10.5 39.9984C10.5 39.9984 10.5 39.9984 10.5 39.9985V59.4375C10.5 59.9856 10.7163 60.5106 11.1003 60.8971C11.4841 61.2835 12.004 61.5 12.5455 61.5H20.1818C20.7232 61.5 21.2431 61.2835 21.627 60.8971C22.011 60.5106 22.2273 59.9856 22.2273 59.4375V59.0964C22.2273 57.7156 23.3466 56.5964 24.7273 56.5964H51.2727C52.6534 56.5964 53.7727 57.7156 53.7727 59.0964V59.4375C53.7727 59.9856 53.989 60.5106 54.373 60.8971C54.7569 61.2835 55.2768 61.5 55.8182 61.5H63.4545C63.996 61.5 64.5159 61.2835 64.8997 60.8971C65.2837 60.5106 65.5 59.9856 65.5 59.4375V39.9985C65.5 39.9984 65.5 39.9984 65.5 39.9984C65.4999 39.4516 65.2844 38.9278 64.902 38.5416L22.4187 22.5011ZM22.4187 22.5011C22.6008 22.1953 22.8583 21.9425 23.1657 21.7672C23.4731 21.5919 23.8201 21.4999 24.173 21.5H24.1731L51.8269 21.5L51.828 21.5C52.1816 21.4992 52.5294 21.5909 52.8376 21.7662C53.1458 21.9415 53.4039 22.1946 53.5864 22.5011L53.5865 22.5013L60.3537 33.8572C60.4582 34.0326 60.5838 34.1945 60.7276 34.3393L64.9016 38.5412L22.4187 22.5011Z" stroke="#DEDEDE"/>
</g>
<path d="M54.6072 33.2261C55.4017 34.5592 54.4411 36.25 52.8892 36.25H22.929C21.3771 36.25 20.4165 34.5592 21.211 33.2261L24.9361 26.9761C25.2968 26.3708 25.9495 26 26.6541 26H49.1641C49.8687 26 50.5214 26.3708 50.8821 26.9761L54.6072 33.2261ZM27.7273 45.6185V47.525C27.7273 47.9328 27.5664 48.3238 27.2799 48.6122C26.9935 48.9005 26.6051 49.0625 26.2 49.0625H16.5273C16.1222 49.0625 15.7337 48.9005 15.4473 48.6122C15.1609 48.3238 15 47.9328 15 47.525V43.2507C15.0001 43.0233 15.0504 42.7986 15.1471 42.5931C15.2439 42.3875 15.3848 42.2061 15.5596 42.062C15.7344 41.9178 15.9389 41.8145 16.1581 41.7596C16.3774 41.7046 16.6061 41.6993 16.8276 41.744L26.0931 43.6095C26.554 43.703 26.9686 43.9541 27.2664 44.3203C27.5643 44.6865 27.7271 45.1452 27.7273 45.6185Z" fill="white"/>
<g filter="url(#filter1_d_43_536)">
<path d="M51.3276 51.2344C52.2577 50.3042 52.9234 49.1423 53.2577 47.8655C53.494 46.9629 53.5588 46.0253 53.4525 45.1007C53.3704 44.3868 53.5457 43.6469 54.0538 43.1388L72.4892 24.7034C73.1919 24.0007 73.583 23.0439 73.5765 22.0435C73.5699 21.0431 73.1662 20.0811 72.4542 19.3691C71.7421 18.6571 70.7801 18.2534 69.7798 18.2468C68.7794 18.2402 67.8226 18.6313 67.1199 19.334L48.6844 37.7695C48.1763 38.2776 47.4365 38.4529 46.7226 38.3708C45.798 38.2645 44.8604 38.3294 43.9579 38.5657C42.6811 38.9001 41.5193 39.5658 40.5891 40.4959C39.6589 41.4261 38.9932 42.5879 38.6589 43.8647C38.6159 44.0288 38.5786 44.1941 38.547 44.3602C38.2599 45.8677 40.033 46.4209 41.1181 45.3358L41.8593 44.5946C42.6404 43.8135 43.9067 43.8135 44.6877 44.5946L47.2287 47.1355C48.0097 47.9166 48.0097 49.1829 47.2287 49.9639L46.4873 50.7053C45.4022 51.7904 45.9554 53.5634 47.4629 53.2765C47.6291 53.2448 47.7945 53.2075 47.9587 53.1645C49.2355 52.8302 50.3974 52.1645 51.3276 51.2344Z" fill="#33454F"/>
</g>
<defs>
<filter id="filter0_b_43_536" x="-2.4" y="8.6" width="80.8" height="65.8" filterUnits="userSpaceOnUse" color-interpolation-filters="sRGB">
<feFlood flood-opacity="0" result="BackgroundImageFix"/>
<feGaussianBlur in="BackgroundImageFix" stdDeviation="6.2"/>
<feComposite in2="SourceAlpha" operator="in" result="effect1_backgroundBlur_43_536"/>
<feBlend mode="normal" in="SourceGraphic" in2="effect1_backgroundBlur_43_536" result="shape"/>
</filter>
<filter id="filter1_d_43_536" x="30.516" y="12.2467" width="51.0605" height="51.0607" filterUnits="userSpaceOnUse" color-interpolation-filters="sRGB">
<feFlood flood-opacity="0" result="BackgroundImageFix"/>
<feColorMatrix in="SourceAlpha" type="matrix" values="0 0 0 0 0 0 0 0 0 0 0 0 0 0 0 0 0 0 127 0" result="hardAlpha"/>
<feOffset dy="2"/>
<feGaussianBlur stdDeviation="4"/>
<feComposite in2="hardAlpha" operator="out"/>
<feColorMatrix type="matrix" values="0 0 0 0 0.545098 0 0 0 0 0.6 0 0 0 0 0.662745 0 0 0 0.16 0"/>
<feBlend mode="normal" in2="BackgroundImageFix" result="effect1_dropShadow_43_536"/>
<feBlend mode="normal" in="SourceGraphic" in2="effect1_dropShadow_43_536" result="shape"/>
</filter>
<radialGradient id="paint0_radial_43_536" cx="0" cy="0" r="1" gradientUnits="userSpaceOnUse" gradientTransform="translate(33.3396 38.6387) rotate(-61.905) scale(25.7419 31.5418)">
<stop stop-color="#82BF00"/>
<stop offset="0.0001" stop-color="#68930C"/>
<stop offset="1" stop-color="#82BF00"/>
</radialGradient>
<radialGradient id="paint1_radial_43_536" cx="0" cy="0" r="1" gradientUnits="userSpaceOnUse" gradientTransform="translate(40 30) rotate(97.9879) scale(33.2838 43.7699)">
<stop stop-color="#7FAE38"/>
<stop offset="0.0001" stop-color="#A1C170"/>
<stop offset="0.770271" stop-color="#EBEBEB"/>
</radialGradient>
</defs>
</svg>
