<svg width="40" height="40" viewBox="0 0 40 40" fill="none" xmlns="http://www.w3.org/2000/svg">
<path d="M13.4546 31C14.3225 31 15.155 30.6596 15.7687 30.0537C16.3825 29.4478 16.7273 28.6261 16.7273 27.7692C16.7273 26.9124 16.3825 26.0906 15.7687 25.4847C15.155 24.8788 14.3225 24.5385 13.4546 24.5385C12.5866 24.5385 11.7541 24.8788 11.1404 25.4847C10.5266 26.0906 10.1818 26.9124 10.1818 27.7692C10.1818 28.6261 10.5266 29.4478 11.1404 30.0537C11.7541 30.6596 12.5866 31 13.4546 31ZM29.8182 31C30.6862 31 31.5186 30.6596 32.1324 30.0537C32.7461 29.4478 33.0909 28.6261 33.0909 27.7692C33.0909 26.9124 32.7461 26.0906 32.1324 25.4847C31.5186 24.8788 30.6862 24.5385 29.8182 24.5385C28.9502 24.5385 28.1178 24.8788 27.504 25.4847C26.8903 26.0906 26.5455 26.9124 26.5455 27.7692C26.5455 28.6261 26.8903 29.4478 27.504 30.0537C28.1178 30.6596 28.9502 31 29.8182 31Z" stroke="#82BF00" stroke-width="2" stroke-miterlimit="1.5" stroke-linecap="round" stroke-linejoin="round"/>
<path d="M16.8091 27.7692H24.9091V10.9692C24.9091 10.7122 24.8057 10.4656 24.6215 10.2839C24.4374 10.1021 24.1877 10 23.9273 10H2M9.60909 27.7692H6.25455C6.12561 27.7692 5.99794 27.7442 5.87882 27.6955C5.7597 27.6467 5.65147 27.5753 5.5603 27.4853C5.46912 27.3953 5.3968 27.2885 5.34746 27.1709C5.29812 27.0533 5.27273 26.9273 5.27273 26.8V18.8846" stroke="#82BF00" stroke-width="2" stroke-linecap="round"/>
<path d="M3.63641 14.8462H10.1819" stroke="#82BF00" stroke-width="2" stroke-linecap="round" stroke-linejoin="round"/>
<path d="M24.9091 14.8462H34.0891C34.2788 14.8462 34.4645 14.9006 34.6237 15.0026C34.7828 15.1047 34.9086 15.2501 34.9858 15.4213L37.9149 21.928C37.9707 22.0516 37.9997 22.1853 38 22.3206V26.8C38 26.9273 37.9746 27.0534 37.9252 27.1709C37.8759 27.2885 37.8036 27.3954 37.7124 27.4854C37.6212 27.5754 37.513 27.6468 37.3939 27.6955C37.2748 27.7442 37.1471 27.7693 37.0181 27.7693H33.9091M24.9091 27.7693H26.5454" stroke="#82BF00" stroke-width="2" stroke-linecap="round"/>
</svg>
