<svg width="40" height="40" viewBox="0 0 40 40" fill="none" xmlns="http://www.w3.org/2000/svg">
<path d="M3 16V28M20 6V12M16.2222 6H23.7778M6.11111 22H3M8 16H12.4444L16.2222 12H22.6104C22.9611 12.0002 23.3049 12.1038 23.6031 12.2991C23.9014 12.4944 24.1424 12.7738 24.2991 13.106L27.0342 18.894C27.191 19.2262 27.432 19.5056 27.7302 19.7009C28.0285 19.8962 28.3722 19.9998 28.7229 20H31.3333V16H35.1111C35.6121 16 36.0925 16.2107 36.4468 16.5858C36.801 16.9609 37 17.4696 37 18V30C37 30.5304 36.801 31.0391 36.4468 31.4142C36.0925 31.7893 35.6121 32 35.1111 32H31.3333V28H25.6667V32C25.6667 32.5304 25.4677 33.0391 25.1134 33.4142C24.7592 33.7893 24.2787 34 23.7778 34H17.2328C16.9219 34 16.6158 33.9188 16.3416 33.7636C16.0675 33.6083 15.8338 33.3838 15.6612 33.11L12.4444 28H8V16Z" stroke="#252628" stroke-width="2" stroke-linecap="round" stroke-linejoin="round"/>
</svg>
