<svg width="40" height="40" viewBox="0 0 40 40" fill="none" xmlns="http://www.w3.org/2000/svg">
<path d="M34.0631 21.0736L20.0017 35L5.94031 21.0736C5.01283 20.1711 4.28227 19.0863 3.79463 17.8875C3.307 16.6888 3.07284 15.4021 3.10692 14.1084C3.141 12.8147 3.44257 11.5421 3.99264 10.3707C4.54271 9.19927 5.32937 8.15445 6.30307 7.302C7.27678 6.44955 8.41644 5.80795 9.65029 5.41759C10.8841 5.02723 12.1855 4.89657 13.4723 5.03384C14.7591 5.17112 16.0036 5.57334 17.1273 6.2152C18.2511 6.85705 19.2297 7.72463 20.0017 8.7633C20.777 7.73217 21.7568 6.87217 22.8798 6.23713C24.0028 5.60209 25.2447 5.20567 26.5279 5.07269C27.8112 4.93971 29.108 5.07302 30.3374 5.46429C31.5667 5.85556 32.702 6.49636 33.6723 7.34659C34.6426 8.19682 35.4269 9.23817 35.9762 10.4055C36.5256 11.5728 36.828 12.8409 36.8647 14.1305C36.9014 15.42 36.6715 16.7033 36.1894 17.8999C35.7074 19.0966 34.9835 20.1808 34.0631 21.0848" stroke="#82BF00" stroke-width="2" stroke-linecap="round" stroke-linejoin="round"/>
<path d="M20.0017 8.75208L13.8278 14.926C13.4763 15.2776 13.2788 15.7543 13.2788 16.2515C13.2788 16.7486 13.4763 17.2254 13.8278 17.577L14.8458 18.5951C16.1395 19.8887 18.2393 19.8887 19.5329 18.5951L21.4078 16.7202C22.5266 15.6014 24.044 14.9729 25.6262 14.9729C27.2084 14.9729 28.7258 15.6014 29.8446 16.7202L34.0631 20.9386M20.9391 26.5632L24.6888 30.3129M25.6262 21.876L29.3759 25.6258" stroke="#82BF00" stroke-width="2" stroke-linecap="round" stroke-linejoin="round"/>
</svg>
