<svg width="41" height="40" viewBox="0 0 41 40" fill="none" xmlns="http://www.w3.org/2000/svg">
<path d="M22.2476 3C24.16 3.0051 25.1307 3.0153 25.9687 3.0391L26.2985 3.051C26.6793 3.0646 27.055 3.0816 27.5089 3.102C29.3176 3.187 30.5517 3.47259 31.6345 3.89248C32.7565 4.32427 33.7016 4.90906 34.6468 5.85253C35.5112 6.70234 36.18 7.73029 36.6068 8.86486C37.0267 9.94774 37.3123 11.1819 37.3972 12.9924C37.4176 13.4446 37.4346 13.8202 37.4482 14.2027L37.4584 14.5325C37.4839 15.3689 37.4941 16.3396 37.4975 18.252L37.4992 19.5202V21.7472C37.5034 22.9871 37.4904 24.2271 37.4601 25.4667L37.4499 25.7965C37.4363 26.179 37.4193 26.5547 37.3989 27.0068C37.314 28.8173 37.025 30.0498 36.6068 31.1343C36.1813 32.2695 35.5122 33.2977 34.6468 34.1467C33.7968 35.0108 32.7689 35.6796 31.6345 36.1067C30.5517 36.5266 29.3176 36.8122 27.5089 36.8972C27.1055 36.9162 26.702 36.9332 26.2985 36.9482L25.9687 36.9584C25.1307 36.9822 24.16 36.9941 22.2476 36.9975L20.9795 36.9992H18.7543C17.5138 37.0035 16.2733 36.9905 15.0332 36.9601L14.7034 36.9499C14.2999 36.9346 13.8964 36.9171 13.4931 36.8972C11.6844 36.8122 10.4502 36.5266 9.36568 36.1067C8.23128 35.6807 7.20376 35.0117 6.35513 34.1467C5.48996 33.2972 4.82049 32.2692 4.39344 31.1343C3.97356 30.0515 3.68797 28.8173 3.60298 27.0068C3.58404 26.6035 3.56704 26.2 3.55198 25.7965L3.54348 25.4667C3.51215 24.2271 3.49799 22.9871 3.50098 21.7472V18.252C3.49624 17.0121 3.5087 15.7721 3.53838 14.5325L3.55028 14.2027C3.56388 13.8202 3.58088 13.4446 3.60128 12.9924C3.68627 11.1819 3.97186 9.94944 4.39174 8.86486C4.81861 7.72913 5.4894 6.70085 6.35683 5.85253C7.20525 4.98806 8.23208 4.31915 9.36568 3.89248C10.4502 3.47259 11.6827 3.187 13.4931 3.102C13.9452 3.0816 14.3226 3.0646 14.7034 3.051L15.0332 3.0408C16.2728 3.0106 17.5127 2.99756 18.7526 3.0017L22.2476 3ZM20.5001 11.4998C18.2459 11.4998 16.084 12.3953 14.49 13.9893C12.896 15.5834 12.0005 17.7453 12.0005 19.9996C12.0005 22.2539 12.896 24.4158 14.49 26.0099C16.084 27.6039 18.2459 28.4994 20.5001 28.4994C22.7543 28.4994 24.9162 27.6039 26.5102 26.0099C28.1042 24.4158 28.9997 22.2539 28.9997 19.9996C28.9997 17.7453 28.1042 15.5834 26.5102 13.9893C24.9162 12.3953 22.7543 11.4998 20.5001 11.4998ZM20.5001 14.8997C21.1698 14.8996 21.833 15.0314 22.4518 15.2876C23.0705 15.5438 23.6328 15.9194 24.1064 16.3928C24.5801 16.8663 24.9558 17.4285 25.2122 18.0472C25.4686 18.6659 25.6006 19.329 25.6007 19.9988C25.6008 20.6685 25.469 21.3317 25.2128 21.9505C24.9566 22.5692 24.5811 23.1315 24.1076 23.6052C23.6341 24.0788 23.072 24.4546 22.4533 24.711C21.8346 24.9674 21.1715 25.0994 20.5018 25.0995C19.1493 25.0995 17.8521 24.5622 16.8958 23.6058C15.9394 22.6494 15.4021 21.3522 15.4021 19.9996C15.4021 18.647 15.9394 17.3499 16.8958 16.3934C17.8521 15.437 19.1493 14.8997 20.5018 14.8997M29.4264 8.94986C28.8628 8.94986 28.3223 9.17374 27.9238 9.57224C27.5253 9.97075 27.3015 10.5112 27.3015 11.0748C27.3015 11.6384 27.5253 12.1789 27.9238 12.5774C28.3223 12.9759 28.8628 13.1998 29.4264 13.1998C29.9899 13.1998 30.5304 12.9759 30.9289 12.5774C31.3274 12.1789 31.5512 11.6384 31.5512 11.0748C31.5512 10.5112 31.3274 9.97075 30.9289 9.57224C30.5304 9.17374 29.9899 8.94986 29.4264 8.94986Z" fill="#DEDEDE"/>
<path d="M20.5001 11.4996C18.2459 11.4996 16.084 12.3952 14.49 13.9892C12.896 15.5832 12.0005 17.7452 12.0005 19.9994C12.0005 22.2537 12.896 24.4157 14.49 26.0097C16.084 27.6037 18.2459 28.4993 20.5001 28.4993C22.7543 28.4993 24.9162 27.6037 26.5102 26.0097C28.1042 24.4157 28.9997 22.2537 28.9997 19.9994C28.9997 17.7452 28.1042 15.5832 26.5102 13.9892C24.9162 12.3952 22.7543 11.4996 20.5001 11.4996ZM20.5001 14.8996C21.1698 14.8995 21.833 15.0313 22.4518 15.2874C23.0705 15.5436 23.6328 15.9192 24.1064 16.3927C24.5801 16.8662 24.9558 17.4283 25.2122 18.047C25.4686 18.6657 25.6006 19.3289 25.6007 19.9986C25.6008 20.6683 25.469 21.3315 25.2128 21.9503C24.9567 22.5691 24.5811 23.1314 24.1076 23.605C23.6341 24.0787 23.072 24.4544 22.4533 24.7108C21.8347 24.9672 21.1715 25.0992 20.5018 25.0993C19.1493 25.0993 17.8521 24.562 16.8958 23.6056C15.9394 22.6492 15.4021 21.352 15.4021 19.9994C15.4021 18.6469 15.9394 17.3497 16.8958 16.3933C17.8521 15.4369 19.1493 14.8996 20.5018 14.8996M29.4264 8.94971C28.8628 8.94971 28.3223 9.17358 27.9238 9.57209C27.5253 9.9706 27.3015 10.5111 27.3015 11.0747C27.3015 11.6382 27.5253 12.1787 27.9238 12.5772C28.3223 12.9757 28.8628 13.1996 29.4264 13.1996C29.9899 13.1996 30.5304 12.9757 30.9289 12.5772C31.3274 12.1787 31.5512 11.6382 31.5512 11.0747C31.5512 10.5111 31.3274 9.9706 30.9289 9.57209C30.5304 9.17358 29.9899 8.94971 29.4264 8.94971Z" fill="#252628"/>
</svg>
