<svg width="63" height="50" viewBox="0 0 63 50" fill="none" xmlns="http://www.w3.org/2000/svg">
<path fill-rule="evenodd" clip-rule="evenodd" d="M60.2765 1.77778H3.08346C2.58208 1.77778 2.17564 2.17574 2.17564 2.66667V17.7778H0.359985V2.66667C0.359985 1.19391 1.57933 0 3.08346 0H60.2765C61.7807 0 63 1.19391 63 2.66667V20H61.1843V2.66667C61.1843 2.17574 60.7779 1.77778 60.2765 1.77778ZM0.359985 20V33.3333C0.359985 34.8061 1.57933 36 3.08346 36H60.2765C61.7807 36 63 34.8061 63 33.3333V22.2222H61.1843V33.3333C61.1843 33.8242 60.7779 34.2222 60.2765 34.2222H3.08346C2.58208 34.2222 2.17564 33.8242 2.17564 33.3333V20H0.359985ZM49.8693 20.0011H47.1175L47.1081 12.3033H42.1213V10.0894H54.9221V12.3034H49.8693V20.0011ZM12.8426 22.2222L11.5376 25.8889H8.58716L10.8567 20H15.5661L16.3604 22.2222H12.8426ZM20.3889 25.8889L14.715 10.1111H17.2682L23.3393 25.8889H20.3889ZM11.7078 17.7778L13.3532 13.4444L14.715 16.8889L14.3745 17.7778H11.7078ZM27.4813 10.1122H33.3237C35.1589 9.97163 38.8291 10.8231 38.8291 15.3537C38.8291 17.9224 37.6492 19.3085 36.2929 20.0016H33.0881L32.2306 18.2454H32.2307H33.2152C34.1528 18.2439 36.0203 17.6518 36.0203 15.2934C36.0203 12.9318 34.1477 12.4618 33.2114 12.5221H30.2339V18.2454H27.4813V10.1122ZM34.165 22.2047L35.9649 25.8889H39.0131L37.1698 22.2047H34.165ZM27.4813 22.2109H30.2337V25.8889H27.4813V22.2109ZM49.8698 22.2109H47.1173V25.8889H49.8698V22.2109ZM30.2337 18.2458H27.4813V20H30.2337V18.2458Z" fill="#DEDEDE"/>
<path d="M5.95839 48.4704V49.6108H0.359985V48.7036L3.87271 44.7033H0.433167V43.5628H5.82117V44.47L2.3176 48.4704H5.95839Z" fill="#DEDEDE"/>
<path d="M11.7205 44.8934C12.3304 44.8934 12.8213 45.0662 13.1933 45.4118C13.5714 45.7574 13.7605 46.27 13.7605 46.9497V49.6108H12.3334V47.1571C12.3334 46.7884 12.248 46.5148 12.0773 46.3363C11.9065 46.152 11.6595 46.0598 11.3363 46.0598C10.9765 46.0598 10.6899 46.1664 10.4764 46.3795C10.263 46.5868 10.1563 46.8979 10.1563 47.3126V49.6108H8.72922V43.2H10.1563V45.4464C10.3453 45.2678 10.574 45.1324 10.8423 45.0403C11.1107 44.9424 11.4034 44.8934 11.7205 44.8934Z" fill="#DEDEDE"/>
<path d="M21.9331 44.9625V49.6108H20.5792V49.0579C20.3902 49.2595 20.1645 49.415 19.9023 49.5244C19.6401 49.6281 19.3565 49.68 19.0516 49.68C18.4051 49.68 17.8929 49.5043 17.5147 49.1529C17.1366 48.8016 16.9476 48.2803 16.9476 47.5891V44.9625H18.3746V47.3904C18.3746 48.1392 18.707 48.5136 19.3717 48.5136C19.7132 48.5136 19.9877 48.4099 20.195 48.2025C20.4024 47.9894 20.5061 47.6755 20.5061 47.2608V44.9625H21.9331Z" fill="#DEDEDE"/>
<path d="M26.5392 45.576C26.7099 45.3513 26.9386 45.1814 27.2253 45.0662C27.518 44.951 27.8534 44.8934 28.2315 44.8934V46.1376C28.073 46.126 27.9662 46.1203 27.9113 46.1203C27.5027 46.1203 27.1826 46.2297 26.9508 46.4486C26.7191 46.6617 26.6032 46.9843 26.6032 47.4163V49.6108H25.1762V44.9625H26.5392V45.576Z" fill="#DEDEDE"/>
<path d="M32.9593 44.8934C33.7216 44.8934 34.3071 45.0662 34.7157 45.4118C35.1243 45.7516 35.3286 46.2672 35.3286 46.9584V49.6108H33.993V49.032C33.7247 49.464 33.2246 49.68 32.4928 49.68C32.1147 49.68 31.7854 49.6195 31.5048 49.4985C31.2304 49.3776 31.02 49.2105 30.8736 48.9974C30.7273 48.7843 30.6541 48.5424 30.6541 48.2716C30.6541 47.8396 30.8248 47.4998 31.1664 47.2521C31.514 47.0044 32.0476 46.8806 32.7672 46.8806H33.9015C33.9015 46.5868 33.807 46.3622 33.6179 46.2067C33.4289 46.0454 33.1453 45.9648 32.7672 45.9648C32.505 45.9648 32.2458 46.0051 31.9897 46.0857C31.7396 46.1606 31.5262 46.2643 31.3493 46.3968L30.837 45.455C31.1054 45.2764 31.4255 45.1382 31.7976 45.0403C32.1757 44.9424 32.5629 44.8934 32.9593 44.8934ZM32.8495 48.7728C33.0935 48.7728 33.31 48.7209 33.499 48.6172C33.6881 48.5078 33.8222 48.3494 33.9015 48.142V47.6668H32.9227C32.3373 47.6668 32.0445 47.8483 32.0445 48.2112C32.0445 48.384 32.1147 48.5222 32.2549 48.6259C32.4013 48.7238 32.5995 48.7728 32.8495 48.7728Z" fill="#DEDEDE"/>
<path d="M43.3367 44.9625L41.2602 49.6108H39.7874L37.72 44.9625H39.1928L40.5558 48.1248L41.9645 44.9625H43.3367Z" fill="#DEDEDE"/>
<path d="M45.84 43.2H47.2671V49.6108H45.84V43.2Z" fill="#DEDEDE"/>
<path d="M55.3333 47.304C55.3333 47.3212 55.3242 47.4422 55.3059 47.6668H51.5828C51.6499 47.9548 51.8084 48.1824 52.0585 48.3494C52.3085 48.5164 52.6195 48.6 52.9915 48.6C53.2477 48.6 53.4733 48.5654 53.6685 48.4963C53.8697 48.4214 54.0557 48.3062 54.2265 48.1507L54.9857 48.9283C54.5222 49.4294 53.8453 49.68 52.9549 49.68C52.4 49.68 51.909 49.5792 51.4822 49.3776C51.0553 49.1702 50.7259 48.8851 50.4942 48.5222C50.2625 48.1593 50.1466 47.7475 50.1466 47.2867C50.1466 46.8316 50.2594 46.4227 50.4851 46.0598C50.7168 45.6912 51.0309 45.406 51.4273 45.2044C51.8298 44.9971 52.278 44.8934 52.772 44.8934C53.2538 44.8934 53.6898 44.9913 54.0801 45.1872C54.4704 45.383 54.7753 45.6652 54.9949 46.0339C55.2205 46.3968 55.3333 46.8201 55.3333 47.304ZM52.7811 45.9129C52.4579 45.9129 52.1865 45.9993 51.967 46.1721C51.7474 46.3449 51.6133 46.5811 51.5645 46.8806H53.9886C53.9398 46.5868 53.8057 46.3536 53.5861 46.1808C53.3666 46.0022 53.0983 45.9129 52.7811 45.9129Z" fill="#DEDEDE"/>
<path d="M63 44.9625L60.9235 49.6108H59.4507L57.3833 44.9625H58.8561L60.2191 48.1248L61.6278 44.9625H63Z" fill="#DEDEDE"/>
</svg>
