<svg width="24" height="24" viewBox="0 0 24 24" fill="none" xmlns="http://www.w3.org/2000/svg">
<path d="M5 10.0221C5 14.9435 9.244 19.013 11.123 20.573C11.393 20.7961 11.528 20.9097 11.729 20.9665C11.885 21.0112 12.115 21.0112 12.271 20.9665C12.472 20.9097 12.607 20.7971 12.877 20.573C14.756 19.013 19 14.9435 19 10.0221C18.9991 9.09809 18.8175 8.18345 18.4656 7.33117C18.1137 6.47889 17.5985 5.70591 16.95 5.05703C15.6311 3.73745 13.8526 2.99836 12 3C10.1474 2.99836 8.3689 3.73745 7.05 5.05703C6.40141 5.70588 5.88624 6.47885 5.53434 7.33114C5.18245 8.18342 5.00082 9.09808 5 10.0221Z" stroke="#252628" stroke-width="2" stroke-linecap="round" stroke-linejoin="round"/>
<path d="M10 10C10 10.5304 10.2107 11.0391 10.5858 11.4142C10.9609 11.7893 11.4696 12 12 12C12.5304 12 13.0391 11.7893 13.4142 11.4142C13.7893 11.0391 14 10.5304 14 10C14 9.46957 13.7893 8.96086 13.4142 8.58579C13.0391 8.21071 12.5304 8 12 8C11.4696 8 10.9609 8.21071 10.5858 8.58579C10.2107 8.96086 10 9.46957 10 10Z" stroke="#252628" stroke-width="2" stroke-linecap="round" stroke-linejoin="round"/>
</svg>
