<svg width="24" height="24" viewBox="0 0 24 24" fill="none" xmlns="http://www.w3.org/2000/svg">
<path d="M4.62223 10.1743C6.63339 14.7471 10.207 18.3714 14.6432 20.3375L15.3555 20.6689C16.1444 21.0357 17.0319 21.1 17.8617 20.8505C18.6914 20.601 19.4103 20.0537 19.8914 19.305L20.8227 17.8569C20.9685 17.6298 21.0275 17.3539 20.9881 17.0836C20.9487 16.8134 20.8139 16.5683 20.6101 16.3967L17.4548 13.7388C17.3449 13.6463 17.2183 13.578 17.0825 13.5379C16.9466 13.4978 16.8045 13.4867 16.6644 13.5054C16.5244 13.5241 16.3895 13.5722 16.2677 13.6467C16.1459 13.7212 16.0398 13.8206 15.9558 13.939L14.9794 15.3139C12.4733 14.0215 10.4447 11.9031 9.20739 9.28612L10.5231 8.26673C10.6365 8.17897 10.7318 8.06819 10.8031 7.94103C10.8745 7.81388 10.9205 7.67298 10.9384 7.52679C10.9563 7.38061 10.9457 7.23215 10.9073 7.09034C10.8689 6.94853 10.8034 6.81629 10.7148 6.70155L8.16926 3.40713C8.0049 3.19434 7.77018 3.05353 7.51133 3.01243C7.25249 2.97134 6.98829 3.03294 6.77077 3.18509L5.37438 4.16292C4.65303 4.668 4.12683 5.42405 3.88952 6.29638C3.65221 7.16872 3.71919 8.10069 4.07855 8.92627L4.62223 10.1743Z" stroke="#252628" stroke-width="2"/>
</svg>
