<svg width="40" height="40" viewBox="0 0 40 40" fill="none" xmlns="http://www.w3.org/2000/svg">
<path d="M24.7875 21.4468C24.9257 20.9888 25 20.5031 25 20C25 18.7535 24.5439 17.6136 23.7895 16.738M24.7875 21.4468C25.9692 21.8662 27.3899 22.45 27.9577 22.7754C28.8017 23.2579 29.4734 23.8659 29.9726 24.5993C30.3638 25.1989 30.8508 25.6339 31.4337 25.9041C32.0166 26.1743 32.611 26.3094 33.2171 26.3094C34.1744 26.3094 35.0442 25.9826 35.8265 25.3289C36.6088 24.674 37 23.7244 37 22.4801C37 20.2374 36.4737 18.2121 35.4212 16.4043C34.37 14.5952 32.7764 13.6906 30.6404 13.6906C30.1927 13.6906 29.7629 13.7344 29.3512 13.8219C28.9394 13.9106 28.4974 14.0387 28.0252 14.2059L23.7895 16.738M24.7875 21.4468C24.5091 22.3693 23.9713 23.1793 23.259 23.7921M23.259 23.7921C22.3838 24.5449 21.245 25 20 25C19.561 25 19.1353 24.9434 18.7297 24.8372M23.259 23.7921L25.7458 28.0252C25.9131 28.4653 26.0488 28.8873 26.153 29.2913C26.2573 29.6966 26.3094 30.0949 26.3094 30.486C26.2926 32.1562 25.5419 33.6591 24.057 34.9947C22.5721 36.3316 20.3931 37 17.5199 37C16.2756 37 15.326 36.6269 14.6711 35.8806C14.0174 35.1343 13.6906 34.2947 13.6906 33.3618C13.6906 32.7236 13.8257 32.097 14.0959 31.4819C14.3661 30.8669 14.8011 30.3638 15.4007 29.9726C16.1341 29.4734 16.7427 28.8017 17.2265 27.9577C17.5504 27.391 18.2401 26.0006 18.7297 24.8372M18.7297 24.8372C17.7926 24.5918 16.9629 24.0813 16.3254 23.3908M16.3254 23.3908C15.5026 22.4996 15 21.3085 15 20C15 19.4796 15.0795 18.9777 15.227 18.5059M16.3254 23.3908L11.9748 25.7458C11.5026 25.9131 11.0522 26.0488 10.6238 26.153C10.1966 26.2573 9.75908 26.3094 9.31131 26.3094C7.65531 26.3094 6.18975 25.5612 4.91462 24.0647C3.63821 22.567 3 20.386 3 17.5218C3 16.2763 3.36671 15.326 4.10014 14.6711C4.83356 14.0174 5.66349 13.6906 6.58992 13.6906C7.25257 13.6906 7.89335 13.8257 8.51226 14.0959C9.12988 14.3661 9.63492 14.8011 10.0274 15.4007C10.5266 16.1341 11.1983 16.7427 12.0423 17.2265C12.6102 17.5511 14.0396 18.1059 15.227 18.5059M15.227 18.5059C15.51 17.6011 16.0432 16.8068 16.7455 16.204M16.7455 16.204C17.6201 15.4535 18.7571 15 20 15C20.5026 15 20.9878 15.0741 21.4454 15.2121M16.7455 16.204L14.2542 11.9748C14.0869 11.527 13.9512 11.0831 13.847 10.6431C13.7427 10.203 13.6906 9.77517 13.6906 9.35956C13.6906 7.39861 14.5444 5.84813 16.2518 4.70811C17.9593 3.56937 20.0354 3 22.4801 3C23.7244 3 24.674 3.36671 25.3289 4.10014C25.9826 4.83356 26.3094 5.66349 26.3094 6.58992C26.3094 7.20368 26.1743 7.8258 25.9041 8.45629C25.6339 9.08678 25.1989 9.5976 24.5993 9.98876C23.8659 10.4893 23.2573 11.1674 22.7735 12.023C22.4488 12.5997 21.8646 14.0272 21.4454 15.2121M21.4454 15.2121C22.3672 15.49 23.1767 16.0268 23.7895 16.738" stroke="#82BF00" stroke-width="2"/>
</svg>
