<svg width="40" height="40" viewBox="0 0 40 40" fill="none" xmlns="http://www.w3.org/2000/svg">
<path d="M5 17.3089C5 11.8723 5 9.154 5.63 8.2394C6.25833 7.3265 8.76333 6.451 13.775 4.7017L14.73 4.3685C17.3417 3.4556 18.6467 3 20 3C21.3517 3 22.6583 3.4556 25.27 4.3685L26.225 4.7017C31.2367 6.451 33.7417 7.3265 34.37 8.2394C35 9.154 35 11.874 35 17.3089V19.9847C35 29.5693 27.935 34.2222 23.5017 36.1959C22.3 36.7314 21.7 37 20 37C18.3 37 17.7 36.7314 16.4983 36.1959C12.065 34.2205 5 29.571 5 19.9847V17.3089Z" stroke="#82BF00" stroke-width="2"/>
<path d="M18.0067 14.2148C18.8939 12.7377 19.3367 12 20 12C20.6632 12 21.106 12.7377 21.9932 14.2148L22.2207 14.5967C22.4745 15.0176 22.6005 15.2272 22.7965 15.3653C22.9925 15.5034 23.2375 15.5554 23.7275 15.6578L24.172 15.7521C25.894 16.1128 26.755 16.2948 26.9598 16.9058C27.1646 17.5184 26.5783 18.1554 25.404 19.4294L25.0995 19.7592C24.767 20.1216 24.6008 20.302 24.5255 20.5262C24.4503 20.7505 24.4748 20.9926 24.5255 21.4752L24.571 21.9139C24.7495 23.6153 24.837 24.4651 24.3015 24.8437C23.766 25.2224 22.9592 24.8762 21.3475 24.1889L20.9292 24.0101C20.4725 23.8151 20.2432 23.716 20 23.716C19.7567 23.716 19.5275 23.8135 19.0707 24.0085L18.6524 24.1873C17.0424 24.8779 16.2339 25.2224 15.6984 24.8437C15.1629 24.4668 15.2504 23.6153 15.4289 21.9156L15.4744 21.4752C15.5252 20.9926 15.5497 20.7505 15.4744 20.5262C15.3992 20.302 15.2329 20.12 14.9004 19.7592L14.5959 19.4294C13.4234 18.1554 12.8354 17.5184 13.0401 16.9058C13.2449 16.2948 14.1059 16.1128 15.8279 15.7521L16.2724 15.6578C16.7624 15.5554 17.0074 15.5034 17.2034 15.3653C17.3994 15.2272 17.5254 15.0176 17.7774 14.5967L18.0067 14.2148Z" stroke="#82BF00" stroke-width="2"/>
</svg>
