<svg width="40" height="40" viewBox="0 0 40 40" fill="none" xmlns="http://www.w3.org/2000/svg">
<path d="M13 9V10.7143C13 11.5114 13 11.9091 12.9392 12.24C12.8158 12.9054 12.511 13.5166 12.0633 13.9964C11.6155 14.4761 11.045 14.8027 10.424 14.9349C10.1152 15 9.744 15 9 15C8.256 15 7.8848 15 7.576 14.9349C6.95495 14.8027 6.38446 14.4761 5.93673 13.9964C5.489 13.5166 5.18416 12.9054 5.06079 12.24C4.99999 11.9091 5 11.5114 5 10.7143V7.28571C5 6.48857 4.99999 6.09086 5.06079 5.76C5.18416 5.09459 5.489 4.48335 5.93673 4.00364C6.38446 3.52393 6.95495 3.19732 7.576 3.06514C7.8848 3 8.256 3 9 3C9.744 3 10.1152 3 10.424 3.06514C11.045 3.19732 11.6155 3.52393 12.0633 4.00364C12.511 4.48335 12.8158 5.09459 12.9392 5.76C13 6.09086 13 6.48857 13 7.28571V9Z" stroke="#82BF00" stroke-width="2" stroke-linecap="round"/>
<path d="M13 31V32.7143C13 33.5114 13 33.9091 12.9392 34.24C12.8158 34.9054 12.511 35.5166 12.0633 35.9964C11.6155 36.4761 11.045 36.8027 10.424 36.9349C10.1152 37 9.744 37 9 37C8.256 37 7.8848 37 7.576 36.9349C6.95495 36.8027 6.38446 36.4761 5.93673 35.9964C5.489 35.5166 5.18416 34.9054 5.06079 34.24C4.99999 33.9091 5 33.5114 5 32.7143V29.2857C5 28.4886 4.99999 28.0909 5.06079 27.76C5.18416 27.0946 5.489 26.4834 5.93673 26.0036C6.38446 25.5239 6.95495 25.1973 7.576 25.0651C7.8848 25 8.256 25 9 25C9.744 25 10.1152 25 10.424 25.0651C11.045 25.1973 11.6155 25.5239 12.0633 26.0036C12.511 26.4834 12.8158 27.0946 12.9392 27.76C13 28.0909 13 28.4886 13 29.2857V31Z" stroke="#82BF00" stroke-width="2" stroke-linecap="round"/>
<path d="M35 9V10.7143C35 11.5114 35 11.9091 34.9392 12.24C34.8158 12.9054 34.511 13.5166 34.0633 13.9964C33.6155 14.4761 33.045 14.8027 32.424 14.9349C32.1152 15 31.744 15 31 15C30.256 15 29.8848 15 29.576 14.9349C28.9549 14.8027 28.3845 14.4761 27.9367 13.9964C27.489 13.5166 27.1842 12.9054 27.0608 12.24C27 11.9091 27 11.5114 27 10.7143V7.28571C27 6.48857 27 6.09086 27.0608 5.76C27.1842 5.09459 27.489 4.48335 27.9367 4.00364C28.3845 3.52393 28.9549 3.19732 29.576 3.06514C29.8848 3 30.256 3 31 3C31.744 3 32.1152 3 32.424 3.06514C33.045 3.19732 33.6155 3.52393 34.0633 4.00364C34.511 4.48335 34.8158 5.09459 34.9392 5.76C35 6.09086 35 6.48857 35 7.28571V9Z" stroke="#82BF00" stroke-width="2" stroke-linecap="round"/>
<path d="M35 31V32.7143C35 33.5114 35 33.9091 34.9392 34.24C34.8158 34.9054 34.511 35.5166 34.0633 35.9964C33.6155 36.4761 33.045 36.8027 32.424 36.9349C32.1152 37 31.744 37 31 37C30.256 37 29.8848 37 29.576 36.9349C28.9549 36.8027 28.3845 36.4761 27.9367 35.9964C27.489 35.5166 27.1842 34.9054 27.0608 34.24C27 33.9091 27 33.5114 27 32.7143V29.2857C27 28.4886 27 28.0909 27.0608 27.76C27.1842 27.0946 27.489 26.4834 27.9367 26.0036C28.3845 25.5239 28.9549 25.1973 29.576 25.0651C29.8848 25 30.256 25 31 25C31.744 25 32.1152 25 32.424 25.0651C33.045 25.1973 33.6155 25.5239 34.0633 26.0036C34.511 26.4834 34.8158 27.0946 34.9392 27.76C35 28.0909 35 28.4886 35 29.2857V31Z" stroke="#82BF00" stroke-width="2" stroke-linecap="round"/>
<path d="M13 9H20M27 9H20M20 9V31M13 31H27" stroke="#82BF00" stroke-width="2" stroke-linecap="round" stroke-linejoin="round"/>
</svg>
