<svg width="32" height="33" viewBox="0 0 32 33" fill="none" xmlns="http://www.w3.org/2000/svg">
<path d="M16 2.1C12.1817 2.1 8.51648 3.61808 5.81873 6.31763C3.11819 9.01825 1.60072 12.6808 1.59998 16.5C1.59998 20.3176 3.11873 23.9828 5.81873 26.6824C8.51648 29.3819 12.1817 30.9 16 30.9C19.8182 30.9 23.4835 29.3819 26.1812 26.6824C28.8812 23.9828 30.4 20.3176 30.4 16.5C30.4 12.6824 28.8812 9.01718 26.1812 6.31763C23.4835 3.61808 19.8182 2.1 16 2.1Z" fill="#EDEDED"/>
<path d="M7.2425 16.331C11.9075 14.299 15.0175 12.9593 16.5725 12.312C21.0175 10.4638 21.94 10.1428 22.5425 10.1319C22.675 10.1298 22.97 10.1625 23.1625 10.3181C23.3225 10.4494 23.3675 10.6269 23.39 10.7515C23.41 10.876 23.4375 11.1598 23.415 11.3813C23.175 13.9113 22.1325 20.0508 21.6025 22.8845C21.38 24.0835 20.9375 24.4855 20.51 24.5248C19.58 24.6103 18.875 23.9108 17.975 23.321C16.5675 22.3978 15.7725 21.8233 14.405 20.9225C12.825 19.8815 13.85 19.3093 14.75 18.3743C14.985 18.1295 19.08 14.4058 19.1575 14.068C19.1675 14.0258 19.1775 13.8683 19.0825 13.7853C18.99 13.702 18.8525 13.7305 18.7525 13.753C18.61 13.785 16.3625 15.272 12.0025 18.2138C11.365 18.6523 10.7875 18.866 10.2675 18.8548C9.6975 18.8425 8.5975 18.5318 7.78 18.2663C6.78 17.9405 5.9825 17.7683 6.0525 17.215C6.0875 16.927 6.485 16.6323 7.2425 16.331Z" fill="#252628"/>
</svg>
