<svg width="41" height="40" viewBox="0 0 41 40" fill="none" xmlns="http://www.w3.org/2000/svg">
<path d="M5.88 5.38C3.5 7.78267 3.5 11.6247 3.5 19.32V20.68C3.5 28.364 3.5 32.206 5.88 34.62C8.28267 37 12.1247 37 19.82 37H21.18C28.864 37 32.706 37 35.12 34.62C37.5 32.2173 37.5 28.3753 37.5 20.68V19.32C37.5 11.636 37.5 7.794 35.12 5.38C32.7173 3 28.8753 3 21.18 3H19.82C12.136 3 8.294 3 5.88 5.38ZM9.23467 13.3473H13.1333C13.258 19.83 16.114 22.5727 18.3807 23.1393V13.3473H22.0413V18.9347C24.274 18.6967 26.6313 16.1467 27.4247 13.336H31.074C30.7766 14.791 30.1822 16.169 29.3281 17.3838C28.474 18.5987 27.3784 19.6244 26.11 20.3967C27.5256 21.101 28.7757 22.0975 29.7779 23.3204C30.7801 24.5434 31.5116 25.9649 31.924 27.4913H27.9007C27.0393 24.8053 24.886 22.72 22.0413 22.4367V27.4913H21.588C13.836 27.4913 9.416 22.1873 9.23467 13.3473Z" fill="#DEDEDE"/>
<path d="M9.23467 13.3473H13.1333C13.258 19.83 16.114 22.5727 18.3807 23.1393V13.3473H22.0413V18.9347C24.274 18.6967 26.6313 16.1467 27.4247 13.336H31.074C30.7766 14.791 30.1822 16.169 29.3281 17.3838C28.474 18.5987 27.3784 19.6244 26.11 20.3967C27.5256 21.101 28.7757 22.0975 29.7779 23.3204C30.7801 24.5434 31.5116 25.9649 31.924 27.4913H27.9007C27.0393 24.8053 24.886 22.72 22.0413 22.4367V27.4913H21.588C13.836 27.4913 9.416 22.1873 9.23467 13.3473Z" fill="white"/>
<path d="M9.23462 13.3473H13.1333C13.258 19.8299 16.114 22.5726 18.3806 23.1393V13.3473H22.0413V18.9346C24.274 18.6966 26.6313 16.1466 27.4246 13.3359H31.074C30.7765 14.7909 30.1821 16.1689 29.328 17.3838C28.4739 18.5986 27.3784 19.6243 26.11 20.3966C27.5256 21.1009 28.7757 22.0974 29.7779 23.3204C30.7801 24.5433 31.5115 25.9649 31.924 27.4913H27.9006C27.0393 24.8053 24.886 22.7199 22.0413 22.4366V27.4913H21.588C13.836 27.4913 9.41595 22.1873 9.23462 13.3473Z" fill="#252628"/>
<path d="M9.23462 13.3473H13.1333C13.258 19.8299 16.114 22.5726 18.3806 23.1393V13.3473H22.0413V18.9346C24.274 18.6966 26.6313 16.1466 27.4246 13.3359H31.074C30.7765 14.7909 30.1821 16.1689 29.328 17.3838C28.4739 18.5986 27.3784 19.6243 26.11 20.3966C27.5256 21.1009 28.7757 22.0974 29.7779 23.3204C30.7801 24.5433 31.5115 25.9649 31.924 27.4913H27.9006C27.0393 24.8053 24.886 22.7199 22.0413 22.4366V27.4913H21.588C13.836 27.4913 9.41595 22.1873 9.23462 13.3473Z" fill="#252628"/>
</svg>
