<svg width="32" height="33" viewBox="0 0 32 33" fill="none" xmlns="http://www.w3.org/2000/svg">
<circle cx="16" cy="16.5" r="14.4" fill="#EDEDED"/>
<path d="M22.2287 10.2586C21.4181 9.44429 20.4529 8.79867 19.3892 8.3594C18.3255 7.92013 17.1847 7.69599 16.0331 7.70006C11.2077 7.70006 7.27509 11.6138 7.27067 16.4186C7.27067 17.9575 7.67509 19.4546 8.43862 20.7801L7.19995 25.3L11.8453 24.0878C13.1303 24.784 14.57 25.1489 16.0331 25.1493H16.0375C20.864 25.1493 24.7955 21.2355 24.7999 16.4263C24.8011 15.2802 24.5743 14.1451 24.1328 13.0866C23.6914 12.0281 23.0438 11.067 22.2276 10.2586H22.2287ZM16.0331 23.6731C14.7281 23.6735 13.4471 23.324 12.3248 22.6611L12.0596 22.5027L9.30382 23.2221L10.0397 20.5458L9.86735 20.2697C9.13786 19.1151 8.75205 17.7783 8.75465 16.4142C8.75465 12.4256 12.022 9.17185 16.0375 9.17185C16.9941 9.17014 17.9416 9.35695 18.8254 9.72151C19.7091 10.0861 20.5117 10.6212 21.1867 11.2959C21.8641 11.9681 22.4011 12.7671 22.7667 13.6469C23.1324 14.5267 23.3194 15.4698 23.3171 16.4219C23.3127 20.4248 20.0453 23.6731 16.0331 23.6731ZM20.0276 18.2457C19.8099 18.1368 18.7348 17.6099 18.5325 17.5351C18.3314 17.4636 18.1845 17.4262 18.0408 17.644C17.8939 17.8607 17.474 18.3546 17.348 18.4965C17.222 18.6428 17.0917 18.6593 16.8729 18.5515C16.6552 18.4415 15.9491 18.2127 15.1138 17.468C14.4618 16.8905 14.0254 16.1755 13.895 15.9588C13.769 15.741 13.8828 15.6244 13.9922 15.5155C14.0883 15.4187 14.2099 15.2603 14.3193 15.1349C14.4298 15.0095 14.4662 14.9171 14.5381 14.7719C14.6099 14.6245 14.5756 14.4991 14.5215 14.3902C14.4662 14.2813 14.0298 13.2066 13.8453 12.7732C13.6685 12.3453 13.4883 12.4047 13.3535 12.3992C13.2276 12.3915 13.0806 12.3915 12.9337 12.3915C12.8227 12.3943 12.7135 12.4198 12.6129 12.4666C12.5123 12.5133 12.4225 12.5803 12.3491 12.6632C12.148 12.881 11.5856 13.4079 11.5856 14.4826C11.5856 15.5573 12.3701 16.5902 12.4806 16.7365C12.5889 16.8828 14.0209 19.0817 16.2187 20.0277C16.7381 20.2532 17.1469 20.3863 17.4662 20.4875C17.9911 20.6547 18.4651 20.6294 18.843 20.5755C19.2629 20.5117 20.137 20.0475 20.3215 19.5382C20.5027 19.0278 20.5027 18.5922 20.4475 18.5009C20.3933 18.4085 20.2464 18.3546 20.0276 18.2457Z" fill="#252628"/>
</svg>
