<svg width="122" height="48" viewBox="0 0 122 48" fill="none" xmlns="http://www.w3.org/2000/svg">
<path d="M42.789 7.76728C39.6054 7.5418 36.8526 8.09708 34.0257 6.55913C26.8475 2.64862 17.2159 4.18994 11.3636 9.79657C5.4642 15.447 3.79836 24.5603 7.27811 32.1356C10.7377 39.6672 18.6462 44.3349 26.9552 43.3758C29.5633 43.0729 32.2791 42.245 34.5574 40.9662C37.2867 39.435 39.9319 40.1215 42.7453 39.96C40.2213 45.5229 29.2739 49.2113 20.5038 47.6329C9.33096 45.6238 1.35177 37.0221 0.577747 26.1487C-0.250123 14.5349 6.11371 4.66781 16.7549 1.24191C26.8138 -1.99553 37.9631 1.41691 42.789 7.77064V7.76728Z" fill="#444444"/>
<path d="M41.8602 23.9477C41.8737 32.7548 34.5541 39.97 25.5821 39.997C16.5126 40.0239 9.0483 32.8154 9.02474 24.0083C9.00119 15.0868 16.3948 7.88502 25.5922 7.86819C34.4666 7.85137 41.8468 15.1474 41.8602 23.9511V23.9477ZM36.9603 23.9107C36.9401 17.5839 31.6969 12.4753 25.2557 12.5022C19.1207 12.5292 13.9785 17.7623 13.9785 23.9746C13.9785 30.251 19.188 35.4067 25.4879 35.3663C31.8383 35.3259 36.9805 30.1904 36.9603 23.9107Z" fill="#444444"/>
<path d="M52.1951 39.3273C50.6269 39.3273 49.0553 39.2835 47.487 39.3407C46.3765 39.3811 46.0332 38.9133 46.0332 37.8431C46.0601 28.4236 46.0568 19.0041 46.0467 9.58787C46.0467 8.73308 46.2452 8.17443 47.2548 8.21145C51.4514 8.36289 55.6816 8.21482 59.8411 8.69269C66.4877 9.45662 71.2092 14.158 72.451 20.6733C73.7568 27.5217 70.9972 33.9023 65.2997 37.1129C62.5973 38.6374 59.6123 39.1321 56.5667 39.2869C55.1129 39.3609 53.6523 39.3003 52.1951 39.3003C52.1951 39.3071 52.1951 39.3138 52.1951 39.3239V39.3273ZM50.9398 23.729H50.9466C50.9466 26.9193 50.9499 30.1096 50.9466 33.3C50.9466 34.1009 51.0475 34.7908 52.0942 34.7201C54.7124 34.5485 57.3878 34.6494 59.9354 34.1346C64.9463 33.125 67.8944 28.925 67.79 23.4968C67.6891 18.2166 64.5391 14.1984 59.5383 13.3267C57.2397 12.9263 54.8604 13.0171 52.5249 12.8219C51.2192 12.7109 50.9028 13.3099 50.923 14.4945C50.9769 17.5704 50.9398 20.6497 50.9398 23.729Z" fill="#444444"/>
<path d="M114.168 29.9346C111.62 37.1431 103.853 41.1646 95.9376 39.4753C87.8541 37.7488 82.6076 30.8533 83.1965 22.726C83.7989 14.4339 89.8699 8.21811 97.7919 7.78398C105.593 7.35659 112.731 11.6474 113.848 17.4391C111.216 18.3612 109.328 17.8026 107.612 15.8641C104.624 12.4887 100.75 11.7416 96.5636 12.7344C92.0473 13.8045 89.3147 16.8232 88.332 21.3361C87.208 26.4952 89.7521 31.6812 94.4266 33.9965C99.1515 36.3354 104.418 35.2383 107.985 31.1764C109.419 29.5408 110.762 29.2615 114.168 29.9379V29.9346Z" fill="#444444"/>
<path d="M75.5404 23.5876C75.5404 19.0444 75.5774 14.5012 75.5168 9.95804C75.5 8.69267 75.7995 8.14749 77.1894 8.18787C80.7836 8.29893 80.3225 7.83451 80.3292 11.3445C80.3461 19.9261 80.336 28.5077 80.3393 37.0893C80.3393 39.3306 80.3427 39.3407 78.1653 39.3306C75.2207 39.3138 75.5572 39.5729 75.5471 36.7124C75.5337 32.3375 75.5438 27.9625 75.5471 23.5876H75.5404Z" fill="#444444"/>
<path d="M116.591 23.7358C116.591 19.2027 116.634 14.6697 116.564 10.1366C116.544 8.71976 116.907 8.12746 118.442 8.18467C121.777 8.31256 121.44 7.8616 121.447 11.1394C121.46 19.8152 121.417 28.491 121.494 37.1635C121.507 38.8024 121.147 39.6269 119.38 39.3375C119 39.2769 118.593 39.2904 118.206 39.3375C116.924 39.4889 116.567 38.8697 116.577 37.6717C116.621 33.0275 116.594 28.38 116.591 23.7358Z" fill="#444444"/>
<path d="M36.9603 23.9108C36.9805 30.1905 31.8383 35.3259 25.4879 35.3663C19.188 35.4067 13.9785 30.251 13.9785 23.9747C13.9785 17.7589 19.1207 12.5259 25.2557 12.5023C31.6969 12.4754 36.9401 17.5839 36.9603 23.9108Z" fill="white"/>
<path d="M50.9398 23.7289C50.9398 20.6497 50.9769 17.5704 50.923 14.4945C50.9028 13.3099 51.2192 12.7109 52.5249 12.8219C54.8604 13.0205 57.2431 12.9262 59.5382 13.3267C64.5391 14.1983 67.6857 18.2165 67.79 23.4967C67.8943 28.925 64.9463 33.1283 59.9354 34.1345C57.3844 34.6461 54.7124 34.5451 52.0941 34.7201C51.0442 34.7908 50.9432 34.0975 50.9466 33.2999C50.9533 30.1096 50.9466 26.9193 50.9466 23.7289H50.9398Z" fill="white"/>
</svg>
