<svg width="116" height="32" viewBox="0 0 116 32" fill="none" xmlns="http://www.w3.org/2000/svg">
<path d="M0.5 32V0H5.63467V27.6905H20.2135V32H0.5Z" fill="#444444"/>
<path d="M23.313 32V0H43.3474V4.30945H28.4477V13.616H42.7973V17.9255H28.4477V27.6905H43.3474V32H23.313Z" fill="#444444"/>
<path d="M53.3696 32L44.3381 0H49.8854L54.1031 16.1375L56.8997 27.0029H57.1748L59.9713 16.1375L64.235 0H69.553L60.5215 32H53.3696Z" fill="#444444"/>
<path d="M70.9563 32V0H90.9907V4.30945H76.091V13.616H90.4405V17.9255H76.091V27.6905H90.9907V32H70.9563Z" fill="#444444"/>
<path d="M95.7865 32V0H100.921V27.6905H115.5V32H95.7865Z" fill="#444444"/>
</svg>
